mtllib palm_tree.mtl
o Trunk
usemtl Trunk
v 0 30 2
v 1.4142135381698608 30 1.4142135381698608
v 2 30 1.2246468525851679e-16
v 1.4142135381698608 30 -1.4142135381698608
v 2.4492937051703357e-16 30 -2
v -1.4142135381698608 30 -1.4142135381698608
v -2 30 -3.6739402930577075e-16
v -1.4142135381698608 30 1.4142135381698608
v -4.898587410340671e-16 30 2
v 0 0 3
v 2.1213202476501465 0 2.1213202476501465
v 3 0 1.8369701465288538e-16
v 2.1213202476501465 0 -2.1213202476501465
v 3.6739402930577075e-16 0 -3
v -2.1213202476501465 0 -2.1213202476501465
v -3 0 -5.510910704284357e-16
v -2.1213202476501465 0 2.1213202476501465
v -7.347880586115415e-16 0 3
v 0 30 0
v 0 30 0
v 0 30 0
v 0 30 0
v 0 30 0
v 0 30 0
v 0 30 0
v 0 30 0
v 0 30 2
v 1.4142135381698608 30 1.4142135381698608
v 2 30 1.2246468525851679e-16
v 1.4142135381698608 30 -1.4142135381698608
v 2.4492937051703357e-16 30 -2
v -1.4142135381698608 30 -1.4142135381698608
v -2 30 -3.6739402930577075e-16
v -1.4142135381698608 30 1.4142135381698608
v -4.898587410340671e-16 30 2
v 0 0 0
v 0 0 0
v 0 0 0
v 0 0 0
v 0 0 0
v 0 0 0
v 0 0 0
v 0 0 0
v 0 0 3
v 2.1213202476501465 0 2.1213202476501465
v 3 0 1.8369701465288538e-16
v 2.1213202476501465 0 -2.1213202476501465
v 3.6739402930577075e-16 0 -3
v -2.1213202476501465 0 -2.1213202476501465
v -3 0 -5.510910704284357e-16
v -2.1213202476501465 0 2.1213202476501465
v -7.347880586115415e-16 0 3
vt 0 1
vt 0.125 1
vt 0.25 1
vt 0.375 1
vt 0.5 1
vt 0.625 1
vt 0.75 1
vt 0.875 1
vt 1 1
vt 0 0
vt 0.125 0
vt 0.25 0
vt 0.375 0
vt 0.5 0
vt 0.625 0
vt 0.75 0
vt 0.875 0
vt 1 0
vt 0.5 0.5
vt 0.5 0.5
vt 0.5 0.5
vt 0.5 0.5
vt 0.5 0.5
vt 0.5 0.5
vt 0.5 0.5
vt 0.5 0.5
vt 1 0.5
vt 0.8535534143447876 0.8535534143447876
vt 0.5 1
vt 0.1464466154575348 0.8535534143447876
vt 0 0.5
vt 0.1464466154575348 0.1464466154575348
vt 0.5 0
vt 0.8535534143447876 0.1464466154575348
vt 1 0.5
vt 0.5 0.5
vt 0.5 0.5
vt 0.5 0.5
vt 0.5 0.5
vt 0.5 0.5
vt 0.5 0.5
vt 0.5 0.5
vt 0.5 0.5
vt 1 0.5
vt 0.8535534143447876 0.1464466154575348
vt 0.5 0
vt 0.1464466154575348 0.1464466154575348
vt 0 0.5
vt 0.1464466154575348 0.8535534143447876
vt 0.5 1
vt 0.8535534143447876 0.8535534143447876
vt 1 0.5
vn 0 0.03331483172110076 0.9994449069295389
vn 0.7067142711176874 0.03331483148976999 0.7067142711176874
vn 0.9994449069295389 0.03331483172110076 6.119834912012969e-17
vn 0.7067142711176874 0.03331483148976999 -0.7067142711176874
vn 1.2239669824025939e-16 0.03331483172110076 -0.9994449069295389
vn -0.7067142711176874 0.03331483148976999 -0.7067142711176874
vn -0.9994449069295389 0.03331483172110076 -1.8359505397783402e-16
vn -0.7067142711176874 0.03331483148976999 0.7067142711176874
vn -2.4479339648051877e-16 0.03331483172110076 0.9994449069295389
vn 0 0.03331483172110076 0.9994449069295389
vn 0.7067142711176874 0.03331483148976999 0.7067142711176874
vn 0.9994449069295389 0.03331483172110076 6.119834912012969e-17
vn 0.7067142711176874 0.03331483148976999 -0.7067142711176874
vn 1.2239669824025939e-16 0.03331483172110076 -0.9994449069295389
vn -0.7067142711176874 0.03331483148976999 -0.7067142711176874
vn -0.9994449069295389 0.03331483172110076 -1.8359505397783402e-16
vn -0.7067142711176874 0.03331483148976999 0.7067142711176874
vn -2.4479339648051877e-16 0.03331483172110076 0.9994449069295389
vn 0 1 0
vn 0 1 0
vn 0 1 0
vn 0 1 0
vn 0 1 0
vn 0 1 0
vn 0 1 0
vn 0 1 0
vn 0 1 0
vn 0 1 0
vn 0 1 0
vn 0 1 0
vn 0 1 0
vn 0 1 0
vn 0 1 0
vn 0 1 0
vn 0 1 0
vn 0 -1 0
vn 0 -1 0
vn 0 -1 0
vn 0 -1 0
vn 0 -1 0
vn 0 -1 0
vn 0 -1 0
vn 0 -1 0
vn 0 -1 0
vn 0 -1 0
vn 0 -1 0
vn 0 -1 0
vn 0 -1 0
vn 0 -1 0
vn 0 -1 0
vn 0 -1 0
vn 0 -1 0
f 1/1/1 10/10/10 2/2/2
f 10/10/10 11/11/11 2/2/2
f 2/2/2 11/11/11 3/3/3
f 11/11/11 12/12/12 3/3/3
f 3/3/3 12/12/12 4/4/4
f 12/12/12 13/13/13 4/4/4
f 4/4/4 13/13/13 5/5/5
f 13/13/13 14/14/14 5/5/5
f 5/5/5 14/14/14 6/6/6
f 14/14/14 15/15/15 6/6/6
f 6/6/6 15/15/15 7/7/7
f 15/15/15 16/16/16 7/7/7
f 7/7/7 16/16/16 8/8/8
f 16/16/16 17/17/17 8/8/8
f 8/8/8 17/17/17 9/9/9
f 17/17/17 18/18/18 9/9/9
f 27/27/27 28/28/28 19/19/19
f 28/28/28 29/29/29 20/20/20
f 29/29/29 30/30/30 21/21/21
f 30/30/30 31/31/31 22/22/22
f 31/31/31 32/32/32 23/23/23
f 32/32/32 33/33/33 24/24/24
f 33/33/33 34/34/34 25/25/25
f 34/34/34 35/35/35 26/26/26
f 45/45/45 44/44/44 36/36/36
f 46/46/46 45/45/45 37/37/37
f 47/47/47 46/46/46 38/38/38
f 48/48/48 47/47/47 39/39/39
f 49/49/49 48/48/48 40/40/40
f 50/50/50 49/49/49 41/41/41
f 51/51/51 50/50/50 42/42/42
f 52/52/52 51/51/51 43/43/43
o Leaves
usemtl Leaves
v -10 33.46410161513776 -1.9999999999999998
v 10 33.46410161513776 -1.9999999999999998
v -10 26.535898384862247 1.9999999999999998
v 10 26.535898384862247 1.9999999999999998
vt 0 1
vt 1 1
vt 0 0
vt 1 0
vn 0 0.49999999999999994 0.8660254037844387
vn 0 0.49999999999999994 0.8660254037844387
vn 0 0.49999999999999994 0.8660254037844387
vn 0 0.49999999999999994 0.8660254037844387
f 53/53/53 55/55/55 54/54/54
f 55/55/55 56/56/56 54/54/54
o Leaves
usemtl Leaves
v -5.000000000000001 37.79422863405995 5.5
v 5.000000000000001 29.133974596215563 -9.5
v -5.000000000000001 30.866025403784437 9.5
v 5.000000000000001 22.205771365940052 -5.5
vt 0 1
vt 1 1
vt 0 0
vt 1 0
vn 0.8660254037844386 0.2500000000000001 0.4330127018922194
vn 0.8660254037844386 0.2500000000000001 0.4330127018922194
vn 0.8660254037844386 0.2500000000000001 0.4330127018922194
vn 0.8660254037844386 0.2500000000000001 0.4330127018922194
f 57/57/57 59/59/59 58/58/58
f 59/59/59 60/60/60 58/58/58
o Leaves
usemtl Leaves
v 4.999999999999998 37.79422863405995 5.500000000000001
v -4.999999999999998 29.13397459621556 -9.5
v 4.999999999999998 30.86602540378444 9.5
v -4.999999999999998 22.205771365940052 -5.500000000000001
vt 0 1
vt 1 1
vt 0 0
vt 1 0
vn 0.8660254037844387 -0.24999999999999992 -0.43301270189221913
vn 0.8660254037844387 -0.24999999999999992 -0.43301270189221913
vn 0.8660254037844387 -0.24999999999999992 -0.43301270189221913
vn 0.8660254037844387 -0.24999999999999992 -0.43301270189221913
f 61/61/61 63/63/63 62/62/62
f 63/63/63 64/64/64 62/62/62
o Leaves
usemtl Leaves
v 10 33.46410161513776 -1.9999999999999987
v -10 33.46410161513776 -2.000000000000001
v 10 26.535898384862247 2.000000000000001
v -10 26.535898384862243 1.9999999999999987
vt 0 1
vt 1 1
vt 0 0
vt 1 0
vn 1.2246467991473532e-16 -0.49999999999999994 -0.8660254037844387
vn 1.2246467991473532e-16 -0.49999999999999994 -0.8660254037844387
vn 1.2246467991473532e-16 -0.49999999999999994 -0.8660254037844387
vn 1.2246467991473532e-16 -0.49999999999999994 -0.8660254037844387
f 65/65/65 67/67/67 66/66/66
f 67/67/67 68/68/68 66/66/66
o Leaves
usemtl Leaves
v 5 29.133974596215563 -9.499999999999996
v -5 37.79422863405995 5.4999999999999964
v 5 22.205771365940052 -5.4999999999999964
v -5 30.866025403784437 9.499999999999996
vt 0 1
vt 1 1
vt 0 0
vt 1 0
vn -0.8660254037844387 -0.25000000000000006 -0.4330127018922195
vn -0.8660254037844387 -0.25000000000000006 -0.4330127018922195
vn -0.8660254037844387 -0.25000000000000006 -0.4330127018922195
vn -0.8660254037844387 -0.25000000000000006 -0.4330127018922195
f 69/69/69 71/71/71 70/70/70
f 71/71/71 72/72/72 70/70/70
o Leaves
usemtl Leaves
v -5.000000000000001 29.133974596215563 -9.5
v 5.000000000000001 37.79422863405995 5.5
v -5.000000000000001 22.205771365940052 -5.5
v 5.000000000000001 30.866025403784437 9.5
vt 0 1
vt 1 1
vt 0 0
vt 1 0
vn -0.8660254037844386 0.2500000000000001 0.4330127018922194
vn -0.8660254037844386 0.2500000000000001 0.4330127018922194
vn -0.8660254037844386 0.2500000000000001 0.4330127018922194
vn -0.8660254037844386 0.2500000000000001 0.4330127018922194
f 73/73/73 75/75/75 74/74/74
f 75/75/75 76/76/76 74/74/74
