# Tank OBJ File
mtllib tank.mtl

# CHASSIS
g Chassis
usemtl Chassis
v -6.0 1.0 -10.0
v 6.0 1.0 -10.0
v 6.0 7.0 -10.0
v -6.0 7.0 -10.0
v -6.0 1.0 10.0
v 6.0 1.0 10.0
v 6.0 7.0 10.0
v -6.0 7.0 10.0
f 5 6 7 8
f 1 4 3 2
f 1 5 8 4
f 6 2 3 7
f 4 8 7 3
f 5 1 2 6

# LEFT TREAD
g LeftTread
usemtl Treads
v -8.8 0.0 -10.4
v -5.6 0.0 -10.4
v -5.6 6.0 -10.4
v -8.8 6.0 -10.4
v -8.8 0.0 10.4
v -5.6 0.0 10.4
v -5.6 6.0 10.4
v -8.8 6.0 10.4
f 13 14 15 16
f 9 12 11 10
f 9 13 16 12
f 14 10 11 15
f 12 16 15 11
f 13 9 10 14

# RIGHT TREAD
g RightTread
usemtl Treads
v 5.6 0.0 -10.4
v 8.8 0.0 -10.4
v 8.8 6.0 -10.4
v 5.6 6.0 -10.4
v 5.6 0.0 10.4
v 8.8 0.0 10.4
v 8.8 6.0 10.4
v 5.6 6.0 10.4
f 21 22 23 24
f 17 20 19 18
f 17 21 24 20
f 22 18 19 23
f 20 24 23 19
f 21 17 18 22

# TURRET
g Turret
usemtl Turret
v 0.0 7.0 0.0
v 0.0 11.0 0.0
v 6.0 7.0 0.0
v 4.24 7.0 4.24
v 0.0 7.0 6.0
v -4.24 7.0 4.24
v -6.0 7.0 0.0
v -4.24 7.0 -4.24
v 0.0 7.0 -6.0
v 4.24 7.0 -4.24
v 4.8 11.0 0.0
v 3.39 11.0 3.39
v 0.0 11.0 4.8
v -3.39 11.0 3.39
v -4.8 11.0 0.0
v -3.39 11.0 -3.39
v 0.0 11.0 -4.8
v 3.39 11.0 -3.39
f 27 35 36 28
f 28 36 37 29
f 29 37 38 30
f 30 38 39 31
f 31 39 40 32
f 32 40 41 33
f 33 41 42 34
f 34 42 35 27
f 26 36 35
f 26 37 36
f 26 38 37
f 26 39 38
f 26 40 39
f 26 41 40
f 26 42 41
f 26 35 42
f 25 28 27
f 25 29 28
f 25 30 29
f 25 31 30
f 25 32 31
f 25 33 32
f 25 34 33
f 25 27 34

# BARREL
g Barrel
usemtl Barrel
v 0.0 9.0 0.0
v 0.0 9.0 16.0
v 0.8 9.0 0.0
v 0.57 9.57 0.0
v 0.0 10.0 0.0
v -0.57 9.57 0.0
v -0.8 9.0 0.0
v -0.57 8.43 0.0
v 0.0 8.0 0.0
v 0.57 8.43 0.0
v 0.8 9.0 16.0
v 0.57 9.57 16.0
v 0.0 10.0 16.0
v -0.57 9.57 16.0
v -0.8 9.0 16.0
v -0.57 8.43 16.0
v 0.0 8.0 16.0
v 0.57 8.43 16.0
f 45 53 54 46
f 46 54 55 47
f 47 55 56 48
f 48 56 57 49
f 49 57 58 50
f 50 58 59 51
f 51 59 60 52
f 52 60 53 45
f 44 53 54
f 44 54 55
f 44 55 56
f 44 56 57
f 44 57 58
f 44 58 59
f 44 59 60
f 44 60 53
f 43 46 45
f 43 47 46
f 43 48 47
f 43 49 48
f 43 50 49
f 43 51 50
f 43 52 51
f 43 45 52
