# X-Wing Fighter
# Generated procedurally
mtllib xwing.mtl

v 0.000000 0.000000 14.000000
v 0.400000 0.000000 12.000000
v 0.369552 0.153073 12.000000
v 0.282843 0.282843 12.000000
v 0.153073 0.369552 12.000000
v 0.000000 0.400000 12.000000
v -0.153073 0.369552 12.000000
v -0.282843 0.282843 12.000000
v -0.369552 0.153073 12.000000
v -0.400000 0.000000 12.000000
v -0.369552 -0.153073 12.000000
v -0.282843 -0.282843 12.000000
v -0.153073 -0.369552 12.000000
v -0.000000 -0.400000 12.000000
v 0.153073 -0.369552 12.000000
v 0.282843 -0.282843 12.000000
v 0.369552 -0.153073 12.000000
v 0.800000 0.000000 6.000000
v 0.739104 0.306147 6.000000
v 0.565685 0.565685 6.000000
v 0.306147 0.739104 6.000000
v 0.000000 0.800000 6.000000
v -0.306147 0.739104 6.000000
v -0.565685 0.565685 6.000000
v -0.739104 0.306147 6.000000
v -0.800000 0.000000 6.000000
v -0.739104 -0.306147 6.000000
v -0.565685 -0.565685 6.000000
v -0.306147 -0.739104 6.000000
v -0.000000 -0.800000 6.000000
v 0.306147 -0.739104 6.000000
v 0.565685 -0.565685 6.000000
v 0.739104 -0.306147 6.000000
v 0.800000 0.000000 0.000000
v 0.739104 0.306147 0.000000
v 0.565685 0.565685 0.000000
v 0.306147 0.739104 0.000000
v 0.000000 0.800000 0.000000
v -0.306147 0.739104 0.000000
v -0.565685 0.565685 0.000000
v -0.739104 0.306147 0.000000
v -0.800000 0.000000 0.000000
v -0.739104 -0.306147 0.000000
v -0.565685 -0.565685 0.000000
v -0.306147 -0.739104 0.000000
v -0.000000 -0.800000 0.000000
v 0.306147 -0.739104 0.000000
v 0.565685 -0.565685 0.000000
v 0.739104 -0.306147 0.000000
v 0.800000 0.000000 -6.000000
v 0.739104 0.306147 -6.000000
v 0.565685 0.565685 -6.000000
v 0.306147 0.739104 -6.000000
v 0.000000 0.800000 -6.000000
v -0.306147 0.739104 -6.000000
v -0.565685 0.565685 -6.000000
v -0.739104 0.306147 -6.000000
v -0.800000 0.000000 -6.000000
v -0.739104 -0.306147 -6.000000
v -0.565685 -0.565685 -6.000000
v -0.306147 -0.739104 -6.000000
v -0.000000 -0.800000 -6.000000
v 0.306147 -0.739104 -6.000000
v 0.565685 -0.565685 -6.000000
v 0.739104 -0.306147 -6.000000
v 0.800000 0.000000 -12.000000
v 0.739104 0.306147 -12.000000
v 0.565685 0.565685 -12.000000
v 0.306147 0.739104 -12.000000
v 0.000000 0.800000 -12.000000
v -0.306147 0.739104 -12.000000
v -0.565685 0.565685 -12.000000
v -0.739104 0.306147 -12.000000
v -0.800000 0.000000 -12.000000
v -0.739104 -0.306147 -12.000000
v -0.565685 -0.565685 -12.000000
v -0.306147 -0.739104 -12.000000
v -0.000000 -0.800000 -12.000000
v 0.306147 -0.739104 -12.000000
v 0.565685 -0.565685 -12.000000
v 0.739104 -0.306147 -12.000000
v -0.420000 0.800000 2.000000
v 0.000000 0.800000 2.000000
v 0.420000 0.800000 2.000000
v -0.465000 1.018750 2.500000
v 0.000000 1.237500 2.500000
v 0.465000 1.018750 2.500000
v -0.510000 1.175000 3.000000
v 0.000000 1.550000 3.000000
v 0.510000 1.175000 3.000000
v -0.555000 1.268750 3.500000
v 0.000000 1.737500 3.500000
v 0.555000 1.268750 3.500000
v -0.600000 1.300000 4.000000
v 0.000000 1.800000 4.000000
v 0.600000 1.300000 4.000000
v -0.555000 1.268750 4.500000
v 0.000000 1.737500 4.500000
v 0.555000 1.268750 4.500000
v -0.510000 1.175000 5.000000
v 0.000000 1.550000 5.000000
v 0.510000 1.175000 5.000000
v -0.465000 1.018750 5.500000
v 0.000000 1.237500 5.500000
v 0.465000 1.018750 5.500000
v -0.420000 0.800000 6.000000
v 0.000000 0.800000 6.000000
v 0.420000 0.800000 6.000000
v 0.565685 0.565685 -1.500000
v 0.565685 0.565685 -2.500000
v 7.636753 7.636753 -1.700000
v 7.636753 7.636753 -2.300000
v -0.565685 0.565685 -1.500000
v -0.565685 0.565685 -2.500000
v -7.636753 7.636753 -1.700000
v -7.636753 7.636753 -2.300000
v 0.565685 -0.565685 -1.500000
v 0.565685 -0.565685 -2.500000
v 7.636753 -7.636753 -1.700000
v 7.636753 -7.636753 -2.300000
v -0.565685 -0.565685 -1.500000
v -0.565685 -0.565685 -2.500000
v -7.636753 -7.636753 -1.700000
v -7.636753 -7.636753 -2.300000
v 8.136753 7.636753 -0.500000
v 8.136753 7.636753 -3.500000
v 7.636753 8.136753 -0.500000
v 7.636753 8.136753 -3.500000
v 7.136753 7.636753 -0.500000
v 7.136753 7.636753 -3.500000
v 7.636753 7.136753 -0.500000
v 7.636753 7.136753 -3.500000
v 7.636753 7.636753 -0.500000
v 7.636753 7.636753 -3.500000
v -7.136753 7.636753 -0.500000
v -7.136753 7.636753 -3.500000
v -7.636753 8.136753 -0.500000
v -7.636753 8.136753 -3.500000
v -8.136753 7.636753 -0.500000
v -8.136753 7.636753 -3.500000
v -7.636753 7.136753 -0.500000
v -7.636753 7.136753 -3.500000
v -7.636753 7.636753 -0.500000
v -7.636753 7.636753 -3.500000
v 8.136753 -7.636753 -0.500000
v 8.136753 -7.636753 -3.500000
v 7.636753 -7.136753 -0.500000
v 7.636753 -7.136753 -3.500000
v 7.136753 -7.636753 -0.500000
v 7.136753 -7.636753 -3.500000
v 7.636753 -8.136753 -0.500000
v 7.636753 -8.136753 -3.500000
v 7.636753 -7.636753 -0.500000
v 7.636753 -7.636753 -3.500000
v -7.136753 -7.636753 -0.500000
v -7.136753 -7.636753 -3.500000
v -7.636753 -7.136753 -0.500000
v -7.636753 -7.136753 -3.500000
v -8.136753 -7.636753 -0.500000
v -8.136753 -7.636753 -3.500000
v -7.636753 -8.136753 -0.500000
v -7.636753 -8.136753 -3.500000
v -7.636753 -7.636753 -0.500000
v -7.636753 -7.636753 -3.500000
v 7.998885 7.848885 0.000000
v 7.998885 7.848885 -4.000000
v 7.848885 7.998885 0.000000
v 7.848885 7.998885 -4.000000
v 7.698885 7.848885 0.000000
v 7.698885 7.848885 -4.000000
v 7.848885 7.698885 0.000000
v 7.848885 7.698885 -4.000000
v -7.698885 7.848885 0.000000
v -7.698885 7.848885 -4.000000
v -7.848885 7.998885 0.000000
v -7.848885 7.998885 -4.000000
v -7.998885 7.848885 0.000000
v -7.998885 7.848885 -4.000000
v -7.848885 7.698885 0.000000
v -7.848885 7.698885 -4.000000
v 7.998885 -7.848885 0.000000
v 7.998885 -7.848885 -4.000000
v 7.848885 -7.698885 0.000000
v 7.848885 -7.698885 -4.000000
v 7.698885 -7.848885 0.000000
v 7.698885 -7.848885 -4.000000
v 7.848885 -7.998885 0.000000
v 7.848885 -7.998885 -4.000000
v -7.698885 -7.848885 0.000000
v -7.698885 -7.848885 -4.000000
v -7.848885 -7.698885 0.000000
v -7.848885 -7.698885 -4.000000
v -7.998885 -7.848885 0.000000
v -7.998885 -7.848885 -4.000000
v -7.848885 -7.998885 0.000000
v -7.848885 -7.998885 -4.000000

usemtl Fuselage
f 1 2 3
f 1 3 4
f 1 4 5
f 1 5 6
f 1 6 7
f 1 7 8
f 1 8 9
f 1 9 10
f 1 10 11
f 1 11 12
f 1 12 13
f 1 13 14
f 1 14 15
f 1 15 16
f 1 16 17
f 1 17 2
f 2 18 19
f 2 19 3
f 3 19 20
f 3 20 4
f 4 20 21
f 4 21 5
f 5 21 22
f 5 22 6
f 6 22 23
f 6 23 7
f 7 23 24
f 7 24 8
f 8 24 25
f 8 25 9
f 9 25 26
f 9 26 10
f 10 26 27
f 10 27 11
f 11 27 28
f 11 28 12
f 12 28 29
f 12 29 13
f 13 29 30
f 13 30 14
f 14 30 31
f 14 31 15
f 15 31 32
f 15 32 16
f 16 32 33
f 16 33 17
f 17 33 18
f 17 18 2
f 18 34 35
f 18 35 19
f 19 35 36
f 19 36 20
f 20 36 37
f 20 37 21
f 21 37 38
f 21 38 22
f 22 38 39
f 22 39 23
f 23 39 40
f 23 40 24
f 24 40 41
f 24 41 25
f 25 41 42
f 25 42 26
f 26 42 43
f 26 43 27
f 27 43 44
f 27 44 28
f 28 44 45
f 28 45 29
f 29 45 46
f 29 46 30
f 30 46 47
f 30 47 31
f 31 47 48
f 31 48 32
f 32 48 49
f 32 49 33
f 33 49 34
f 33 34 18
f 34 50 51
f 34 51 35
f 35 51 52
f 35 52 36
f 36 52 53
f 36 53 37
f 37 53 54
f 37 54 38
f 38 54 55
f 38 55 39
f 39 55 56
f 39 56 40
f 40 56 57
f 40 57 41
f 41 57 58
f 41 58 42
f 42 58 59
f 42 59 43
f 43 59 60
f 43 60 44
f 44 60 61
f 44 61 45
f 45 61 62
f 45 62 46
f 46 62 63
f 46 63 47
f 47 63 64
f 47 64 48
f 48 64 65
f 48 65 49
f 49 65 50
f 49 50 34
f 50 66 67
f 50 67 51
f 51 67 68
f 51 68 52
f 52 68 69
f 52 69 53
f 53 69 70
f 53 70 54
f 54 70 71
f 54 71 55
f 55 71 72
f 55 72 56
f 56 72 73
f 56 73 57
f 57 73 74
f 57 74 58
f 58 74 75
f 58 75 59
f 59 75 76
f 59 76 60
f 60 76 77
f 60 77 61
f 61 77 78
f 61 78 62
f 62 78 79
f 62 79 63
f 63 79 80
f 63 80 64
f 64 80 81
f 64 81 65
f 65 81 66
f 65 66 50

usemtl Cockpit
f 82 83 86
f 82 86 85
f 83 84 87
f 83 87 86
f 85 86 89
f 85 89 88
f 86 87 90
f 86 90 89
f 88 89 92
f 88 92 91
f 89 90 93
f 89 93 92
f 91 92 95
f 91 95 94
f 92 93 96
f 92 96 95
f 94 95 98
f 94 98 97
f 95 96 99
f 95 99 98
f 97 98 101
f 97 101 100
f 98 99 102
f 98 102 101
f 100 101 104
f 100 104 103
f 101 102 105
f 101 105 104
f 103 104 107
f 103 107 106
f 104 105 108
f 104 108 107

usemtl Wings
f 109 110 111
f 110 112 111
f 109 111 110
f 110 111 112
f 113 114 115
f 114 116 115
f 113 115 114
f 114 115 116
f 117 118 119
f 118 120 119
f 117 119 118
f 118 119 120
f 121 122 123
f 122 124 123
f 121 123 122
f 122 123 124

usemtl Engines
f 125 126 128
f 125 128 127
f 127 128 130
f 127 130 129
f 129 130 132
f 129 132 131
f 131 132 126
f 131 126 125
f 135 136 138
f 135 138 137
f 137 138 140
f 137 140 139
f 139 140 142
f 139 142 141
f 141 142 136
f 141 136 135
f 145 146 148
f 145 148 147
f 147 148 150
f 147 150 149
f 149 150 152
f 149 152 151
f 151 152 146
f 151 146 145
f 155 156 158
f 155 158 157
f 157 158 160
f 157 160 159
f 159 160 162
f 159 162 161
f 161 162 156
f 161 156 155

usemtl EngineGlow
f 133 125 127
f 133 127 129
f 133 129 131
f 133 131 125
f 134 128 126
f 134 130 128
f 134 132 130
f 134 126 132
f 143 135 137
f 143 137 139
f 143 139 141
f 143 141 135
f 144 138 136
f 144 140 138
f 144 142 140
f 144 136 142
f 153 145 147
f 153 147 149
f 153 149 151
f 153 151 145
f 154 148 146
f 154 150 148
f 154 152 150
f 154 146 152
f 163 155 157
f 163 157 159
f 163 159 161
f 163 161 155
f 164 158 156
f 164 160 158
f 164 162 160
f 164 156 162

usemtl Weapons
f 165 166 168
f 165 168 167
f 167 168 170
f 167 170 169
f 169 170 172
f 169 172 171
f 171 172 166
f 171 166 165
f 173 174 176
f 173 176 175
f 175 176 178
f 175 178 177
f 177 178 180
f 177 180 179
f 179 180 174
f 179 174 173
f 181 182 184
f 181 184 183
f 183 184 186
f 183 186 185
f 185 186 188
f 185 188 187
f 187 188 182
f 187 182 181
f 189 190 192
f 189 192 191
f 191 192 194
f 191 194 193
f 193 194 196
f 193 196 195
f 195 196 190
f 195 190 189

